# xmcd CD database file
# Copyright (C) 1996 Ti Kan
#
# Track frame offsets:
#  150
#  13435
#  27522
#  41527
#  54487
#  69805
#  84105
#  98497
#  113577
#  127700
#  141762
#  156027
#  170485
#  184907
#  199435
#  214262
#  227850
#  241630
#  255482
#  270342
#  284412
#  297850
#  311452
#  326147
#  339547
#  353570
#
# Disc length: 4902 seconds
#
# Revision: 2
# Processed by: cddbd v1.4PL0 Copyright (c) Steve Scherf et al.
# Submitted via: Gronk 1.4
#
DISCID=6d13241a
DTITLE=Charlie Patton - Founder of the Delta Blues
DYEAR=1900
DGENRE=blues
TTITLE0=Down The Dirt Road Blues
TTITLE1=Mississippi Bo Weavil Blues
TTITLE2=Screamin' And Hollerin' The Blues
TTITLE3=Stone Pony Blues
TTITLE4=It Won't Be Long
TTITLE5=Shake It And Break It
TTITLE6=Magnolia Blues
TTITLE7=Dry Well Blues
TTITLE8=High Water Everywhere Part 1
TTITLE9=High Water Everywhere Part 2
TTITLE10=Green River Blues
TTITLE11=Bird Nest Bound
TTITLE12=High Sheriff Blues
TTITLE13=A Spoonful Blues
TTITLE14=Moon Going Down
TTITLE15=Pony Blues
TTITLE16=Elder Green Blues
TTITLE17=Banty Rooster Blues
TTITLE18=Some Of These Days
TTITLE19=Tom Rushen Blues
TTITLE20=34 Blues
TTITLE21=Going To Move To Alabama
TTITLE22=Hammer Blues
TTITLE23=Poor Me
TTITLE24=When Your Ways Get Dark
TTITLE25=Devil Sent The Rain
EXTD=Yazoo 2010\n\nSubmitted 6/23/97\n[Jmccoy@efn.org]
EXTT0=
EXTT1=
EXTT2=
EXTT3=
EXTT4=
EXTT5=
EXTT6=
EXTT7=
EXTT8=
EXTT9=
EXTT10=
EXTT11=
EXTT12=
EXTT13=
EXTT14=
EXTT15=
EXTT16=
EXTT17=
EXTT18=
EXTT19=
EXTT20=
EXTT21=
EXTT22=
EXTT23=
EXTT24=
EXTT25=
PLAYORDER=
